<svg width="61" height="61" viewBox="0 0 61 61" fill="none" xmlns="http://www.w3.org/2000/svg">
<circle cx="30.1006" cy="30.1006" r="30.1006" fill="#2366E8"/>
<path d="M28.65 41.6H32.35V37.9H28.65V41.6ZM30.5 12C20.288 12 12 20.288 12 30.5C12 40.712 20.288 49 30.5 49C40.712 49 49 40.712 49 30.5C49 20.288 40.712 12 30.5 12ZM30.5 45.3C22.3415 45.3 15.7 38.6585 15.7 30.5C15.7 22.3415 22.3415 15.7 30.5 15.7C38.6585 15.7 45.3 22.3415 45.3 30.5C45.3 38.6585 38.6585 45.3 30.5 45.3ZM30.5 19.4C26.4115 19.4 23.1 22.7115 23.1 26.8H26.8C26.8 24.765 28.465 23.1 30.5 23.1C32.535 23.1 34.2 24.765 34.2 26.8C34.2 30.5 28.65 30.0375 28.65 36.05H32.35C32.35 31.8875 37.9 31.425 37.9 26.8C37.9 22.7115 34.5885 19.4 30.5 19.4Z" fill="white"/>
</svg>
