<svg width="31" height="31" viewBox="0 0 31 31" fill="none" xmlns="http://www.w3.org/2000/svg">
<g clip-path="url(#clip0_134_552)">
<path d="M15.5 10.3333C16.9208 10.3333 18.0833 9.17079 18.0833 7.74996C18.0833 6.32913 16.9208 5.16663 15.5 5.16663C14.0792 5.16663 12.9167 6.32913 12.9167 7.74996C12.9167 9.17079 14.0792 10.3333 15.5 10.3333ZM15.5 12.9166C14.0792 12.9166 12.9167 14.0791 12.9167 15.5C12.9167 16.9208 14.0792 18.0833 15.5 18.0833C16.9208 18.0833 18.0833 16.9208 18.0833 15.5C18.0833 14.0791 16.9208 12.9166 15.5 12.9166ZM15.5 20.6666C14.0792 20.6666 12.9167 21.8291 12.9167 23.25C12.9167 24.6708 14.0792 25.8333 15.5 25.8333C16.9208 25.8333 18.0833 24.6708 18.0833 23.25C18.0833 21.8291 16.9208 20.6666 15.5 20.6666Z" fill="white"/>
</g>
<defs>
<clipPath id="clip0_134_552">
<rect width="31" height="31" fill="white"/>
</clipPath>
</defs>
</svg>
